<svg width="16" height="16" viewBox="0 0 16 16" fill="none" xmlns="http://www.w3.org/2000/svg">
<path d="M5.99573 4.99573C5.99573 3.89116 6.89116 2.99573 7.99573 2.99573C9.1003 2.99573 9.99573 3.89116 9.99573 4.99573C9.99573 6.1003 9.1003 6.99573 7.99573 6.99573C6.89116 6.99573 5.99573 6.1003 5.99573 4.99573ZM5.49571 7.99573L10.4957 7.99573C11.3242 7.99573 11.9957 8.6673 11.9957 9.49573C11.9957 10.6118 11.5368 11.506 10.7836 12.1105C10.0423 12.7055 9.0488 12.9957 7.99573 12.9957C6.94265 12.9957 5.94915 12.7055 5.20788 12.1105C4.4547 11.506 3.99573 10.6118 3.99573 9.49573C3.99573 8.66733 4.66729 7.99573 5.49571 7.99573ZM9.43505 0.926145C8.87682 -0.308715 7.12318 -0.308715 6.56495 0.926145C6.41545 1.25685 6.00069 1.36799 5.70586 1.15634C4.60499 0.36603 3.08629 1.24285 3.22028 2.59139C3.25616 2.95254 2.95254 3.25616 2.59139 3.22028C1.24285 3.08629 0.36603 4.60499 1.15634 5.70586C1.36799 6.00069 1.25685 6.41545 0.926145 6.56495C-0.308715 7.12318 -0.308715 8.87682 0.926145 9.43505C1.25685 9.58455 1.36799 9.99931 1.15634 10.2941C0.36603 11.395 1.24285 12.9137 2.59139 12.7797C2.95254 12.7438 3.25616 13.0475 3.22028 13.4086C3.08629 14.7571 4.60499 15.634 5.70586 14.8437C6.00069 14.632 6.41545 14.7431 6.56495 15.0739C7.12318 16.3087 8.87682 16.3087 9.43505 15.0739C9.58455 14.7431 9.99931 14.632 10.2941 14.8437C11.395 15.634 12.9137 14.7571 12.7797 13.4086C12.7438 13.0475 13.0475 12.7438 13.4086 12.7797C14.7571 12.9137 15.634 11.395 14.8437 10.2941C14.632 9.99931 14.7431 9.58455 15.0739 9.43505C16.3087 8.87682 16.3087 7.12318 15.0739 6.56495C14.7431 6.41545 14.632 6.00069 14.8437 5.70586C15.634 4.60499 14.7571 3.08629 13.4086 3.22028C13.0475 3.25616 12.7438 2.95254 12.7797 2.59139C12.9137 1.24285 11.395 0.36603 10.2941 1.15634C9.99931 1.36799 9.58455 1.25685 9.43505 0.926145ZM7.47617 1.33807C7.67993 0.887311 8.32006 0.887311 8.52383 1.33807C8.93339 2.24405 10.0696 2.54851 10.8773 1.96868C11.2792 1.6802 11.8335 2.00026 11.7846 2.49251C11.6863 3.48189 12.5181 4.31369 13.5075 4.21538C13.9997 4.16647 14.3198 4.72084 14.0313 5.12269C13.4515 5.93036 13.7559 7.06661 14.6619 7.47617C15.1127 7.67993 15.1127 8.32006 14.6619 8.52383C13.7559 8.93339 13.4515 10.0696 14.0313 10.8773C14.3198 11.2792 13.9997 11.8335 13.5075 11.7846C12.5181 11.6863 11.6863 12.5181 11.7846 13.5075C11.8335 13.9997 11.2792 14.3198 10.8773 14.0313C10.0696 13.4515 8.93339 13.7559 8.52383 14.6619C8.32006 15.1127 7.67993 15.1127 7.47617 14.6619C7.06661 13.7559 5.93036 13.4515 5.12269 14.0313C4.72084 14.3198 4.16647 13.9997 4.21538 13.5075C4.31369 12.5181 3.48189 11.6863 2.49251 11.7846C2.00026 11.8335 1.6802 11.2792 1.96868 10.8773C2.54851 10.0696 2.24405 8.93339 1.33807 8.52383C0.887311 8.32006 0.887311 7.67993 1.33807 7.47617C2.24405 7.06661 2.54851 5.93036 1.96868 5.12269C1.6802 4.72084 2.00026 4.16647 2.49251 4.21538C3.48189 4.31369 4.31369 3.48189 4.21538 2.49251C4.16647 2.00026 4.72084 1.6802 5.12269 1.96868C5.93036 2.54851 7.06661 2.24405 7.47617 1.33807Z" fill="#616161"/>
</svg>
