<svg width="17" height="16" viewBox="0 0 17 16" fill="none" xmlns="http://www.w3.org/2000/svg">
<path d="M4.5 0H12.5C13.6046 0 14.5 0.895431 14.5 2L14.5 14C14.5 15.1046 13.6046 16 12.5 16H4.5C3.39543 16 2.5 15.1046 2.5 14V2C2.5 0.895431 3.39543 0 4.5 0ZM4.5 1C3.94772 1 3.5 1.44772 3.5 2V14C3.5 14.5523 3.94772 15 4.5 15H12.5C13.0523 15 13.5 14.5523 13.5 14L13.5 2C13.5 1.44771 13.0523 1 12.5 1L4.5 1ZM11.5 4.5C11.5 4.74546 11.3231 4.94961 11.0899 4.99194L11 5H6C5.72386 5 5.5 4.77614 5.5 4.5C5.5 4.25454 5.67688 4.05039 5.91012 4.00806L6 4H11C11.2761 4 11.5 4.22386 11.5 4.5ZM11.5 8C11.5 8.24546 11.3231 8.44961 11.0899 8.49194L11 8.5H6C5.72386 8.5 5.5 8.27614 5.5 8C5.5 7.75454 5.67688 7.55039 5.91012 7.50806L6 7.5H11C11.2761 7.5 11.5 7.72386 11.5 8ZM11.5 11.5C11.5 11.7455 11.3231 11.9496 11.0899 11.9919L11 12H6C5.72386 12 5.5 11.7761 5.5 11.5C5.5 11.2545 5.67688 11.0504 5.91012 11.0081L6 11H11C11.2761 11 11.5 11.2239 11.5 11.5Z" fill="#6C757D"/>
</svg>
