<svg width="17" height="16" viewBox="0 0 17 16" fill="none" xmlns="http://www.w3.org/2000/svg">
<path d="M8.5 2C7.39543 2 6.5 2.89543 6.5 4C6.5 5.10457 7.39543 6 8.5 6C9.60457 6 10.5 5.10457 10.5 4C10.5 2.89543 9.60457 2 8.5 2ZM7.5 4C7.5 3.44772 7.94772 3 8.5 3C9.05228 3 9.5 3.44772 9.5 4C9.5 4.55228 9.05228 5 8.5 5C7.94772 5 7.5 4.55228 7.5 4ZM5 12.5C4.72386 12.5 4.5 12.7239 4.5 13C4.5 13.2761 4.72386 13.5 5 13.5H12C12.2761 13.5 12.5 13.2761 12.5 13C12.5 12.7239 12.2761 12.5 12 12.5H5ZM2.5 2C2.5 0.895431 3.39543 0 4.5 0H12.5C13.6046 0 14.5 0.895431 14.5 2V14C14.5 15.1046 13.6046 16 12.5 16H4.5C3.39543 16 2.5 15.1046 2.5 14V2ZM12.5 1H4.5C3.94772 1 3.5 1.44772 3.5 2V10H5.5V8C5.5 7.44772 5.94772 7 6.5 7H10.5C11.0523 7 11.5 7.44772 11.5 8V10H13.5V2C13.5 1.44772 13.0523 1 12.5 1ZM10.5 8H6.5V10H10.5V8ZM3.5 11V14C3.5 14.5523 3.94772 15 4.5 15H12.5C13.0523 15 13.5 14.5523 13.5 14V11H3.5Z" fill="#6C757D"/>
</svg>
