<svg width="11" height="10" viewBox="0 0 11 10" fill="none" xmlns="http://www.w3.org/2000/svg">
<path d="M4.02295 0C1.81381 0 0.0229492 1.79086 0.0229492 4C0.0229492 6.20914 1.81381 8 4.02295 8C4.94712 8 5.79808 7.68659 6.47536 7.16025L9.16846 9.85335C9.36372 10.0486 9.6803 10.0486 9.87556 9.85335C10.0708 9.65808 10.0708 9.3415 9.87556 9.14624L7.18256 6.45323C7.70928 5.77583 8.02295 4.92454 8.02295 4C8.02295 1.79086 6.23209 0 4.02295 0ZM1.02295 4C1.02295 2.34315 2.3661 1 4.02295 1C5.6798 1 7.02295 2.34315 7.02295 4C7.02295 5.65685 5.6798 7 4.02295 7C2.3661 7 1.02295 5.65685 1.02295 4Z" fill="#616161"/>
</svg>
